<svg xmlns="http://www.w3.org/2000/svg" xmlns:xlink="http://www.w3.org/1999/xlink" xmlns:lucid="lucid" width="1016.5" height="444.96"><g transform="translate(-14.503093195832662 3720)" lucid:page-tab-id="0_0"><path d="M400.46-3487.77h555.3v85.82h-555.3z" stroke="#000" stroke-opacity="0" stroke-width="5" fill="#e5e5e5"/><use xlink:href="#a" transform="matrix(1,0,0,1,405.4639396602268,-3482.7734554676135) translate(0 43.333333333333336)"/><path d="M34.5-3406.07h314.68v109.43H34.5z" stroke="#000" stroke-opacity="0" stroke-width="5" fill="#e5e5e5"/><use xlink:href="#b" transform="matrix(1,0,0,1,39.50309319583266,-3401.0653418607894) translate(0 21.333333333333336)"/><path d="M56.2-3366.62h123.13v60.8H56.2z" stroke="#000" stroke-opacity="0" stroke-width="2" fill="#ff8f80"/><use xlink:href="#c" transform="matrix(1,0,0,1,61.20967886679993,-3361.6160321772236) translate(15.703703703703702 29.944444444444443)"/><path d="M194.95-3367.07h123.12v61.5H194.95z" stroke="#000" stroke-opacity="0" stroke-width="2" fill="#ff8f80"/><use xlink:href="#d" transform="matrix(1,0,0,1,199.95075278880927,-3362.074797760584) translate(22.555555555555557 30.444444444444443)"/><path d="M116.87-3531.64l-44.1-22.04" stroke="#000" stroke-opacity="0" stroke-width="2" fill="none"/><path d="M59.1-3560.5l14.84 2.23-4.15 8.3z" stroke="#000" stroke-opacity="0" stroke-width="2" fill-opacity="0"/><path d="M191.84-3659v7.75" stroke="#000" stroke-width="2" fill="none"/><path d="M192.84-3658.97h-2v-1.03h2z"/><path d="M191.84-3636l-4.63-14.25h9.28z" stroke="#000" stroke-width="2"/><path d="M34.5-3632.75h314.68v184.5H34.5z" stroke="#000" stroke-opacity="0" stroke-width="5" fill="#e5e5e5"/><use xlink:href="#e" transform="matrix(1,0,0,1,39.50309319583266,-3627.7493228881176) translate(0 21.333333333333336)"/><path d="M56.2-3592.7h123.12v61.5H56.22z" stroke="#000" stroke-opacity="0" stroke-width="2" fill="#ffc374"/><use xlink:href="#f" transform="matrix(1,0,0,1,61.20787279122575,-3587.699831754794) translate(19.962962962962962 30.444444444444443)"/><path d="M204.3-3527.26h123.12v60.8H204.3z" stroke="#000" stroke-opacity="0" stroke-width="2" fill="#ffc374"/><use xlink:href="#g" transform="matrix(1,0,0,1,209.30190092890524,-3522.2618239208828) translate(20.02469135802469 17.77777777777778)"/><use xlink:href="#h" transform="matrix(1,0,0,1,209.30190092890524,-3522.2618239208828) translate(26.783950617283956 44.44444444444444)"/><path d="M204.3-3592.34h123.12v60.8H204.3z" stroke="#000" stroke-opacity="0" stroke-width="2" fill="#ffc374"/><use xlink:href="#i" transform="matrix(1,0,0,1,209.30190092890524,-3587.3422470125324) translate(39.592592592592595 17.77777777777778)"/><use xlink:href="#h" transform="matrix(1,0,0,1,209.30190092890524,-3587.3422470125324) translate(26.783950617283956 44.44444444444444)"/><path d="M56.32-3521.9h123.1v60.8H56.33z" stroke="#000" stroke-opacity="0" stroke-width="2" fill="#ffc374"/><use xlink:href="#j" transform="matrix(1,0,0,1,61.315762473803346,-3516.8980527869553) translate(3.944444444444443 17.77777777777778)"/><use xlink:href="#h" transform="matrix(1,0,0,1,61.315762473803346,-3516.8980527869553) translate(26.783950617283956 44.44444444444444)"/><path d="M117.78-3530.2v-1" stroke="#000" stroke-width="2" fill="none"/><path d="M118.78-3530.18l-2 .02v-1.04h2z"/><path d="M117.84-3525.13l-4.8-14.2 9.27-.12z" stroke="#000" stroke-width="2"/><path d="M194.7-3512.68l-14.86-24.47" stroke="#000" stroke-width="2" fill="none"/><path d="M202.62-3499.63l-11.36-9.8 7.92-4.8z" stroke="#000" stroke-width="2"/><path d="M180.7-3537.64l-1.38.84v-3.13z"/><path d="M185.8-3561.95h-5.48" stroke="#000" stroke-width="2" fill="none"/><path d="M201.07-3561.95l-14.27 4.64v-9.28z" stroke="#000" stroke-width="2"/><path d="M180.35-3560.95h-1.03v-2h1.03z"/><path d="M34.5-3700h314.68v40H34.5z" stroke="#000" stroke-opacity="0" stroke-width="5" fill="#e5e5e5"/><use xlink:href="#k" transform="matrix(1,0,0,1,39.50309319583266,-3695) translate(0 21.333333333333336)"/><path d="M972.5-3451.6l.75-.72 1.02-1.05 1.02-1.17 1.03-1.3 1.05-1.45 1.06-1.6 1.06-1.8 1.07-2 1.06-2.24 1.05-2.5 1.02-2.77.98-3.1.9-3.4.8-3.74.7-4.04.52-4.3.34-4.53.14-4.66-.07-4.68-.28-4.6-.48-4.45-.65-4.2-.8-3.9-.9-3.6-1-3.27-1.03-2.96-1.07-2.65-1.1-2.4-1.1-2.12-1.1-1.9-1.08-1.72-1.08-1.53-1.07-1.38-1.05-1.24-1.05-1.1-1.03-1.02-.2-.16" stroke="#000" stroke-width="2" fill="none"/><path d="M958.77-3446.07l11.5-9.64 3.46 8.6zM958.18-3552.37l14.97 1-3.44 8.6z" stroke="#000" stroke-width="2"/><path d="M399.87-3598.27h555.3v89.4h-555.3z" stroke="#000" stroke-opacity="0" stroke-width="5" fill="#e5e5e5"/><use xlink:href="#l" transform="matrix(1,0,0,1,404.8730658119425,-3593.267140826514) translate(0 45.333333333333336)"/><path d="M674.6-3584.44h123.1v60.8H674.6z" stroke="#000" stroke-opacity="0" stroke-width="2" fill="#a3d977"/><use xlink:href="#m" transform="matrix(1,0,0,1,679.5965693029056,-3579.4405307923907) translate(25.827160493827158 29.944444444444443)"/><path d="M816.44-3476.17h123.12v63.33H816.44z" stroke="#000" stroke-opacity="0" stroke-width="2" fill="#a3d977"/><use xlink:href="#n" transform="matrix(1,0,0,1,821.441210029927,-3471.172368320601) translate(20.611111111111107 18.111111111111114)"/><use xlink:href="#o" transform="matrix(1,0,0,1,821.441210029927,-3471.172368320601) translate(3.944444444444443 44.777777777777786)"/><path d="M532.75-3584.88h123.12v63.34H532.75z" stroke="#000" stroke-opacity="0" stroke-width="2" fill="#a3d977"/><use xlink:href="#p" transform="matrix(1,0,0,1,537.7519285758842,-3579.8781299681923) translate(15.73456790123457 18.111111111111114)"/><use xlink:href="#q" transform="matrix(1,0,0,1,537.7519285758842,-3579.8781299681923) translate(39.098765432098766 44.777777777777786)"/><path d="M674.6-3475.3h123.1v60.8H674.6z" stroke="#000" stroke-opacity="0" stroke-width="2" fill="#a3d977"/><use xlink:href="#r" transform="matrix(1,0,0,1,679.5965693029056,-3470.2869828459307) translate(31.135802469135804 29.944444444444443)"/><path d="M532.75-3475.23h123.12v60.8H532.75z" stroke="#000" stroke-opacity="0" stroke-width="2" fill="#a3d977"/><use xlink:href="#s" transform="matrix(1,0,0,1,537.7519285758842,-3470.2289961309693) translate(-3.4012345679012412 29.944444444444443)"/><path d="M972.25-3344.76l.9-.9 1.05-1.1 1.04-1.22 1.06-1.37 1.08-1.53 1.08-1.7 1.1-1.92 1.08-2.13 1.08-2.4 1.06-2.66 1.02-2.97.96-3.3.88-3.6.76-3.96.62-4.24.43-4.47.24-4.62v-4.7l-.2-4.62-.4-4.5-.57-4.24-.73-3.97-.86-3.63-.94-3.32-1-3-1.04-2.68-1.07-2.4-1.08-2.17-1.08-1.92-1.07-1.72-1.06-1.55-1.04-1.37-1.04-1.24-1.03-1.13-1.03-1" stroke="#000" stroke-width="2" fill="none"/><path d="M958.54-3339.17l11.46-9.68 3.5 8.6zM958.76-3443.64l14.96 1.1-3.5 8.6z" stroke="#000" stroke-width="2"/><path d="M973.6-3341.45l1.22-.52 1.8-.84 1.77-.94 1.76-1.03 1.78-1.13 1.8-1.24 1.78-1.36 1.8-1.5 1.82-1.63 1.83-1.8 1.86-1.97 1.87-2.17 1.9-2.4 1.9-2.62 1.93-2.9 1.94-3.2 1.95-3.55 1.95-3.92 1.92-4.34 1.9-4.8 1.82-5.27 1.75-5.8 1.62-6.3 1.44-6.86 1.24-7.35 1-7.8.67-8.14.35-8.38v-8.46l-.35-8.4-.7-8.16-.98-7.84-1.25-7.4-1.46-6.9-1.64-6.36-1.76-5.84-1.85-5.32-1.9-4.82-1.94-4.38-1.97-3.95-1.97-3.58-1.96-3.25-1.95-2.93-1.92-2.65-1.9-2.4-1.9-2.2-1.86-1.98-1.85-1.82-1.84-1.65-1.82-1.5-1.8-1.37-1.8-1.25-1.78-1.12-1.8-1.03-1.78-.94-1.8-.83-1.26-.54" stroke="#000" stroke-width="2" fill="none"/><path d="M958.72-3338.56l13.12-7.28 1.77 9.1zM958.35-3552.95l14.9-1.83-1.78 9.1z" stroke="#000" stroke-width="2"/><path d="M400.24-3380.86h555.3v85.82h-555.3z" stroke="#000" stroke-opacity="0" stroke-width="5" fill="#e5e5e5"/><use xlink:href="#t" transform="matrix(1,0,0,1,405.23589287631734,-3375.8556175313315) translate(0 43.333333333333336)"/><path d="M532.75-3368.1h123.12v61.62H532.75z" stroke="#000" stroke-opacity="0" stroke-width="2" fill="#a3d977"/><use xlink:href="#u" transform="matrix(1,0,0,1,537.7519285758842,-3363.0985402398287) translate(18.820987654320987 30.444444444444443)"/><path d="M674.6-3367.98h123.1v61.5H674.6z" stroke="#000" stroke-opacity="0" stroke-width="2" fill="#a3d977"/><use xlink:href="#v" transform="matrix(1,0,0,1,679.5965693029056,-3362.982566809906) translate(24.96296296296297 30.444444444444443)"/><path d="M399.6-3700h555.3v89.4H399.6z" stroke="#000" stroke-opacity="0" stroke-width="5" fill="#e5e5e5"/><use xlink:href="#w" transform="matrix(1,0,0,1,404.59711504514416,-3695) translate(0 45.333333333333336)"/><path d="M674.6-3686.17h123.1v60.8H674.6z" stroke="#000" stroke-opacity="0" stroke-width="2" fill="#a3d977"/><use xlink:href="#x" transform="matrix(1,0,0,1,679.5965693029056,-3681.1733899658766) translate(-2.135802469135804 29.944444444444443)"/><path d="M817.4-3686.05h123.1v60.8H817.4z" stroke="#000" stroke-opacity="0" stroke-width="2" fill="#a3d977"/><use xlink:href="#y" transform="matrix(1,0,0,1,822.3975586063735,-3681.054195051789) translate(20.672839506172842 29.944444444444443)"/><path d="M532.75-3686.4h123.12v60.78H532.75z" stroke="#000" stroke-opacity="0" stroke-width="2" fill="#a3d977"/><use xlink:href="#z" transform="matrix(1,0,0,1,537.7519285758842,-3681.4117797940507) translate(20.641975308641975 29.944444444444443)"/><path d="M971.45-3648.2l.05.05 1.03 1.1 1.05 1.2 1.06 1.37 1.07 1.53 1.1 1.72 1.1 1.93 1.08 2.18 1.08 2.44 1.05 2.75 1.02 3.07.94 3.42.83 3.76.7 4.08.52 4.37.33 4.57.1 4.67-.12 4.67-.34 4.54-.55 4.32-.7 4.02-.84 3.7-.92 3.33-1 3-1.04 2.7-1.07 2.37-1.07 2.13-1.08 1.88-1.06 1.68-1.06 1.5-1.05 1.33-1.03 1.2-.9.94" stroke="#000" stroke-width="2" fill="none"/><path d="M957.87-3654.03l14.94 1.37-3.65 8.52zM958.15-3554.85l11.26-9.9 3.68 8.5z" stroke="#000" stroke-width="2"/><path d="M972.93-3651.7l.85.35 1.76.82 1.75.92 1.74 1 1.75 1.1 1.75 1.23 1.76 1.35 1.8 1.47 1.8 1.6 1.8 1.8 1.83 1.94 1.85 2.14 1.88 2.36 1.9 2.6 1.9 2.88 1.92 3.18 1.93 3.52 1.94 3.9 1.9 4.3 1.9 4.73 1.8 5.24 1.74 5.73 1.6 6.25 1.44 6.77 1.22 7.24.97 7.67.68 8 .34 8.2v8.27l-.34 8.16-.66 7.93-.96 7.58-1.2 7.14-1.42 6.65-1.57 6.13-1.7 5.6-1.77 5.13-1.84 4.63-1.87 4.2-1.9 3.8-1.88 3.44-1.9 3.1-1.86 2.82-1.85 2.55-1.83 2.3-1.82 2.12-1.8 1.9-1.77 1.76-1.77 1.6-1.74 1.44-1.74 1.32-1.74 1.2-1.73 1.1-1.73 1-1.73.9-1.74.82-.77.32" stroke="#000" stroke-width="2" fill="none"/><path d="M958.08-3654.67l14.9-1.76-1.82 9.1zM958.94-3445.5l13.08-7.34 1.82 9.1z" stroke="#000" stroke-width="2"/><path d="M191.84-3424.57v-5.16" stroke="#000" stroke-width="2" fill="none"/><path d="M191.84-3409.3l-4.63-14.27h9.28zM191.84-3445l4.64 14.27h-9.27z" stroke="#000" stroke-width="2"/><path d="M367.68-3351.35h6.7v-303.95h6.72" stroke="#000" stroke-width="2" fill="none"/><path d="M352.4-3351.35l14.28-4.64v9.28zM396.36-3655.3l-14.26 4.63v-9.27z" stroke="#000" stroke-width="2"/><path d="M367.68-3351.35h6.85v-202.22h6.84" stroke="#000" stroke-width="2" fill="none"/><path d="M352.4-3351.35l14.28-4.64v9.28zM396.64-3553.57l-14.27 4.64v-9.27z" stroke="#000" stroke-width="2"/><path d="M367.68-3351.35h7.14v-93.5h7.14" stroke="#000" stroke-width="2" fill="none"/><path d="M352.4-3351.35l14.28-4.64v9.28zM397.23-3444.86l-14.27 4.63v-9.27z" stroke="#000" stroke-width="2"/><path d="M367.68-3351.35h14.05" stroke="#000" stroke-width="2" fill="none"/><path d="M352.4-3351.35l14.28-4.64v9.28zM397-3351.35l-14.27 4.63v-9.27z" stroke="#000" stroke-width="2"/><path d="M817.74-3584.2h123.12v60.55H817.74z" stroke="#000" stroke-opacity="0" stroke-width="2" fill="#a3d977"/><g><use xlink:href="#A" transform="matrix(1,0,0,1,822.7383558902084,-3579.202140964216) translate(7.956790123456798 29.944444444444443)"/></g><path d="M817.74-3373.7h123.12v67.22H817.74z" stroke="#000" stroke-opacity="0" stroke-width="2" fill="#a3d977"/><g><use xlink:href="#B" transform="matrix(1,0,0,1,822.7383558902084,-3368.703922686095) translate(-7.938271604938279 33.44444444444444)"/></g><defs><path fill="#7ab648" d="M30 0v-248h187v28H63v79h144v27H63v87h162V0H30" id="C"/><path fill="#7ab648" d="M117-194c89-4 53 116 60 194h-32v-121c0-31-8-49-39-48C34-167 62-67 57 0H25l-1-190h30c1 10-1 24 2 32 11-22 29-35 61-36" id="D"/><path fill="#7ab648" d="M114-163C36-179 61-72 57 0H25l-1-190h30c1 12-1 29 2 39 6-27 23-49 58-41v29" id="E"/><path fill="#7ab648" d="M24-231v-30h32v30H24zM24 0v-190h32V0H24" id="F"/><path fill="#7ab648" d="M96-169c-40 0-48 33-48 73s9 75 48 75c24 0 41-14 43-38l32 2c-6 37-31 61-74 61-59 0-76-41-82-99-10-93 101-131 147-64 4 7 5 14 7 22l-32 3c-4-21-16-35-41-35" id="G"/><path fill="#7ab648" d="M106-169C34-169 62-67 57 0H25v-261h32l-1 103c12-21 28-36 61-36 89 0 53 116 60 194h-32v-121c2-32-8-49-39-48" id="H"/><g id="a"><use transform="matrix(0.07407407407407408,0,0,0.07407407407407408,0,0)" xlink:href="#C"/><use transform="matrix(0.07407407407407408,0,0,0.07407407407407408,17.77777777777778,0)" xlink:href="#D"/><use transform="matrix(0.07407407407407408,0,0,0.07407407407407408,32.592592592592595,0)" xlink:href="#E"/><use transform="matrix(0.07407407407407408,0,0,0.07407407407407408,41.40740740740741,0)" xlink:href="#F"/><use transform="matrix(0.07407407407407408,0,0,0.07407407407407408,47.25925925925927,0)" xlink:href="#G"/><use transform="matrix(0.07407407407407408,0,0,0.07407407407407408,60.5925925925926,0)" xlink:href="#H"/></g><path fill="#ff8f80" d="M30 0v-248h187v28H63v79h144v27H63v87h162V0H30" id="I"/><path fill="#ff8f80" d="M141 0L90-78 38 0H4l68-98-65-92h35l48 74 47-74h35l-64 92 68 98h-35" id="J"/><path fill="#ff8f80" d="M96-169c-40 0-48 33-48 73s9 75 48 75c24 0 41-14 43-38l32 2c-6 37-31 61-74 61-59 0-76-41-82-99-10-93 101-131 147-64 4 7 5 14 7 22l-32 3c-4-21-16-35-41-35" id="K"/><path fill="#ff8f80" d="M106-169C34-169 62-67 57 0H25v-261h32l-1 103c12-21 28-36 61-36 89 0 53 116 60 194h-32v-121c2-32-8-49-39-48" id="L"/><path fill="#ff8f80" d="M141-36C126-15 110 5 73 4 37 3 15-17 15-53c-1-64 63-63 125-63 3-35-9-54-41-54-24 1-41 7-42 31l-33-3c5-37 33-52 76-52 45 0 72 20 72 64v82c-1 20 7 32 28 27v20c-31 9-61-2-59-35zM48-53c0 20 12 33 32 33 41-3 63-29 60-74-43 2-92-5-92 41" id="M"/><path fill="#ff8f80" d="M117-194c89-4 53 116 60 194h-32v-121c0-31-8-49-39-48C34-167 62-67 57 0H25l-1-190h30c1 10-1 24 2 32 11-22 29-35 61-36" id="N"/><path fill="#ff8f80" d="M177-190C167-65 218 103 67 71c-23-6-38-20-44-43l32-5c15 47 100 32 89-28v-30C133-14 115 1 83 1 29 1 15-40 15-95c0-56 16-97 71-98 29-1 48 16 59 35 1-10 0-23 2-32h30zM94-22c36 0 50-32 50-73 0-42-14-75-50-75-39 0-46 34-46 75s6 73 46 73" id="O"/><path fill="#ff8f80" d="M100-194c63 0 86 42 84 106H49c0 40 14 67 53 68 26 1 43-12 49-29l28 8c-11 28-37 45-77 45C44 4 14-33 15-96c1-61 26-98 85-98zm52 81c6-60-76-77-97-28-3 7-6 17-6 28h103" id="P"/><g id="b"><use transform="matrix(0.07407407407407408,0,0,0.07407407407407408,0,0)" xlink:href="#I"/><use transform="matrix(0.07407407407407408,0,0,0.07407407407407408,17.77777777777778,0)" xlink:href="#J"/><use transform="matrix(0.07407407407407408,0,0,0.07407407407407408,31.111111111111114,0)" xlink:href="#K"/><use transform="matrix(0.07407407407407408,0,0,0.07407407407407408,44.44444444444445,0)" xlink:href="#L"/><use transform="matrix(0.07407407407407408,0,0,0.07407407407407408,59.25925925925927,0)" xlink:href="#M"/><use transform="matrix(0.07407407407407408,0,0,0.07407407407407408,74.07407407407408,0)" xlink:href="#N"/><use transform="matrix(0.07407407407407408,0,0,0.07407407407407408,88.88888888888889,0)" xlink:href="#O"/><use transform="matrix(0.07407407407407408,0,0,0.07407407407407408,103.7037037037037,0)" xlink:href="#P"/></g><path d="M190 0L58-211 59 0H30v-248h39L202-35l-2-213h31V0h-41" id="Q"/><path d="M30-248c118-7 216 8 213 122C240-48 200 0 122 0H30v-248zM63-27c89 8 146-16 146-99s-60-101-146-95v194" id="R"/><path d="M30-248c87 1 191-15 191 75 0 78-77 80-158 76V0H30v-248zm33 125c57 0 124 11 124-50 0-59-68-47-124-48v98" id="S"/><path d="M84 4C-5 8 30-112 23-190h32v120c0 31 7 50 39 49 72-2 45-101 50-169h31l1 190h-30c-1-10 1-25-2-33-11 22-28 36-60 37" id="T"/><path d="M135-143c-3-34-86-38-87 0 15 53 115 12 119 90S17 21 10-45l28-5c4 36 97 45 98 0-10-56-113-15-118-90-4-57 82-63 122-42 12 7 21 19 24 35" id="U"/><path d="M106-169C34-169 62-67 57 0H25v-261h32l-1 103c12-21 28-36 61-36 89 0 53 116 60 194h-32v-121c2-32-8-49-39-48" id="V"/><g id="c"><use transform="matrix(0.06172839506172839,0,0,0.06172839506172839,0,0)" xlink:href="#Q"/><use transform="matrix(0.06172839506172839,0,0,0.06172839506172839,15.987654320987653,0)" xlink:href="#R"/><use transform="matrix(0.06172839506172839,0,0,0.06172839506172839,31.975308641975307,0)" xlink:href="#S"/><use transform="matrix(0.06172839506172839,0,0,0.06172839506172839,46.79012345679012,0)" xlink:href="#T"/><use transform="matrix(0.06172839506172839,0,0,0.06172839506172839,59.1358024691358,0)" xlink:href="#U"/><use transform="matrix(0.06172839506172839,0,0,0.06172839506172839,70.24691358024691,0)" xlink:href="#V"/></g><path d="M24 0v-261h32V0H24" id="W"/><g id="d"><use transform="matrix(0.06172839506172839,0,0,0.06172839506172839,0,0)" xlink:href="#Q"/><use transform="matrix(0.06172839506172839,0,0,0.06172839506172839,15.987654320987653,0)" xlink:href="#R"/><use transform="matrix(0.06172839506172839,0,0,0.06172839506172839,31.975308641975307,0)" xlink:href="#S"/><use transform="matrix(0.06172839506172839,0,0,0.06172839506172839,46.79012345679012,0)" xlink:href="#T"/><use transform="matrix(0.06172839506172839,0,0,0.06172839506172839,59.1358024691358,0)" xlink:href="#W"/><use transform="matrix(0.06172839506172839,0,0,0.06172839506172839,64.01234567901234,0)" xlink:href="#W"/></g><path fill="#ffc374" d="M185-189c-5-48-123-54-124 2 14 75 158 14 163 119 3 78-121 87-175 55-17-10-28-26-33-46l33-7c5 56 141 63 141-1 0-78-155-14-162-118-5-82 145-84 179-34 5 7 8 16 11 25" id="X"/><path fill="#ffc374" d="M59-47c-2 24 18 29 38 22v24C64 9 27 4 27-40v-127H5v-23h24l9-43h21v43h35v23H59v120" id="Y"/><path fill="#ffc374" d="M100-194c62-1 85 37 85 99 1 63-27 99-86 99S16-35 15-95c0-66 28-99 85-99zM99-20c44 1 53-31 53-75 0-43-8-75-51-75s-53 32-53 75 10 74 51 75" id="Z"/><path fill="#ffc374" d="M114-163C36-179 61-72 57 0H25l-1-190h30c1 12-1 29 2 39 6-27 23-49 58-41v29" id="aa"/><path fill="#ffc374" d="M100-194c63 0 86 42 84 106H49c0 40 14 67 53 68 26 1 43-12 49-29l28 8c-11 28-37 45-77 45C44 4 14-33 15-96c1-61 26-98 85-98zm52 81c6-60-76-77-97-28-3 7-6 17-6 28h103" id="ab"/><g id="e"><use transform="matrix(0.07407407407407408,0,0,0.07407407407407408,0,0)" xlink:href="#X"/><use transform="matrix(0.07407407407407408,0,0,0.07407407407407408,17.77777777777778,0)" xlink:href="#Y"/><use transform="matrix(0.07407407407407408,0,0,0.07407407407407408,25.185185185185187,0)" xlink:href="#Z"/><use transform="matrix(0.07407407407407408,0,0,0.07407407407407408,40,0)" xlink:href="#aa"/><use transform="matrix(0.07407407407407408,0,0,0.07407407407407408,48.81481481481481,0)" xlink:href="#ab"/></g><path d="M115-194c53 0 69 39 70 98 0 66-23 100-70 100C84 3 66-7 56-30L54 0H23l1-261h32v101c10-23 28-34 59-34zm-8 174c40 0 45-34 45-75 0-40-5-75-45-74-42 0-51 32-51 76 0 43 10 73 51 73" id="ac"/><path d="M100-194c62-1 85 37 85 99 1 63-27 99-86 99S16-35 15-95c0-66 28-99 85-99zM99-20c44 1 53-31 53-75 0-43-8-75-51-75s-53 32-53 75 10 74 51 75" id="ad"/><path d="M85-194c31 0 48 13 60 33l-1-100h32l1 261h-30c-2-10 0-23-3-31C134-8 116 4 85 4 32 4 16-35 15-94c0-66 23-100 70-100zm9 24c-40 0-46 34-46 75 0 40 6 74 45 74 42 0 51-32 51-76 0-42-9-74-50-73" id="ae"/><path d="M160-131c35 5 61 23 61 61C221 17 115-2 30 0v-248c76 3 177-17 177 60 0 33-19 50-47 57zm-97-11c50-1 110 9 110-42 0-47-63-36-110-37v79zm0 115c55-2 124 14 124-45 0-56-70-42-124-44v89" id="af"/><g id="f"><use transform="matrix(0.06172839506172839,0,0,0.06172839506172839,0,0)" xlink:href="#ac"/><use transform="matrix(0.06172839506172839,0,0,0.06172839506172839,12.345679012345679,0)" xlink:href="#ad"/><use transform="matrix(0.06172839506172839,0,0,0.06172839506172839,24.691358024691358,0)" xlink:href="#U"/><use transform="matrix(0.06172839506172839,0,0,0.06172839506172839,35.80246913580247,0)" xlink:href="#U"/><use transform="matrix(0.06172839506172839,0,0,0.06172839506172839,46.91358024691358,0)" xlink:href="#ae"/><use transform="matrix(0.06172839506172839,0,0,0.06172839506172839,59.25925925925926,0)" xlink:href="#af"/></g><path d="M137 0h-34L2-248h35l83 218 83-218h36" id="ag"/><path d="M210-169c-67 3-38 105-44 169h-31v-121c0-29-5-50-35-48C34-165 62-65 56 0H25l-1-190h30c1 10-1 24 2 32 10-44 99-50 107 0 11-21 27-35 58-36 85-2 47 119 55 194h-31v-121c0-29-5-49-35-48" id="ah"/><path d="M100-194c63 0 86 42 84 106H49c0 40 14 67 53 68 26 1 43-12 49-29l28 8c-11 28-37 45-77 45C44 4 14-33 15-96c1-61 26-98 85-98zm52 81c6-60-76-77-97-28-3 7-6 17-6 28h103" id="ai"/><g id="g"><use transform="matrix(0.06172839506172839,0,0,0.06172839506172839,0,0)" xlink:href="#ag"/><use transform="matrix(0.06172839506172839,0,0,0.06172839506172839,13.580246913580245,0)" xlink:href="#ad"/><use transform="matrix(0.06172839506172839,0,0,0.06172839506172839,25.925925925925924,0)" xlink:href="#W"/><use transform="matrix(0.06172839506172839,0,0,0.06172839506172839,30.80246913580247,0)" xlink:href="#T"/><use transform="matrix(0.06172839506172839,0,0,0.06172839506172839,43.148148148148145,0)" xlink:href="#ah"/><use transform="matrix(0.06172839506172839,0,0,0.06172839506172839,61.60493827160494,0)" xlink:href="#ai"/></g><path d="M140-251c81 0 123 46 123 126C263-53 228-8 163 1c7 30 30 48 69 40v23c-55 16-95-15-103-61C56-3 17-48 17-125c0-80 42-126 123-126zm0 227c63 0 89-41 89-101s-29-99-89-99c-61 0-89 39-89 99S79-25 140-24" id="aj"/><path d="M114-163C36-179 61-72 57 0H25l-1-190h30c1 12-1 29 2 39 6-27 23-49 58-41v29" id="ak"/><path d="M179-190L93 31C79 59 56 82 12 73V49c39 6 53-20 64-50L1-190h34L92-34l54-156h33" id="al"/><g id="h"><use transform="matrix(0.06172839506172839,0,0,0.06172839506172839,0,0)" xlink:href="#aj"/><use transform="matrix(0.06172839506172839,0,0,0.06172839506172839,17.28395061728395,0)" xlink:href="#T"/><use transform="matrix(0.06172839506172839,0,0,0.06172839506172839,29.629629629629626,0)" xlink:href="#ai"/><use transform="matrix(0.06172839506172839,0,0,0.06172839506172839,41.9753086419753,0)" xlink:href="#ak"/><use transform="matrix(0.06172839506172839,0,0,0.06172839506172839,49.32098765432098,0)" xlink:href="#al"/></g><path d="M127-220V0H93v-220H8v-28h204v28h-85" id="am"/><path d="M24-231v-30h32v30H24zM24 0v-190h32V0H24" id="an"/><g id="i"><use transform="matrix(0.06172839506172839,0,0,0.06172839506172839,0,0)" xlink:href="#am"/><use transform="matrix(0.06172839506172839,0,0,0.06172839506172839,12.716049382716047,0)" xlink:href="#an"/><use transform="matrix(0.06172839506172839,0,0,0.06172839506172839,17.592592592592588,0)" xlink:href="#W"/><use transform="matrix(0.06172839506172839,0,0,0.06172839506172839,22.469135802469133,0)" xlink:href="#ai"/></g><path d="M205 0l-28-72H64L36 0H1l101-248h38L239 0h-34zm-38-99l-47-123c-12 45-31 82-46 123h93" id="ao"/><path d="M117-194c89-4 53 116 60 194h-32v-121c0-31-8-49-39-48C34-167 62-67 57 0H25l-1-190h30c1 10-1 24 2 32 11-22 29-35 61-36" id="ap"/><path d="M59-47c-2 24 18 29 38 22v24C64 9 27 4 27-40v-127H5v-23h24l9-43h21v43h35v23H59v120" id="aq"/><path d="M141-36C126-15 110 5 73 4 37 3 15-17 15-53c-1-64 63-63 125-63 3-35-9-54-41-54-24 1-41 7-42 31l-33-3c5-37 33-52 76-52 45 0 72 20 72 64v82c-1 20 7 32 28 27v20c-31 9-61-2-59-35zM48-53c0 20 12 33 32 33 41-3 63-29 60-74-43 2-92-5-92 41" id="ar"/><g id="j"><use transform="matrix(0.06172839506172839,0,0,0.06172839506172839,0,0)" xlink:href="#ao"/><use transform="matrix(0.06172839506172839,0,0,0.06172839506172839,14.814814814814813,0)" xlink:href="#ap"/><use transform="matrix(0.06172839506172839,0,0,0.06172839506172839,27.160493827160494,0)" xlink:href="#ap"/><use transform="matrix(0.06172839506172839,0,0,0.06172839506172839,39.50617283950617,0)" xlink:href="#ad"/><use transform="matrix(0.06172839506172839,0,0,0.06172839506172839,51.85185185185185,0)" xlink:href="#aq"/><use transform="matrix(0.06172839506172839,0,0,0.06172839506172839,58.02469135802469,0)" xlink:href="#ar"/><use transform="matrix(0.06172839506172839,0,0,0.06172839506172839,70.37037037037037,0)" xlink:href="#aq"/><use transform="matrix(0.06172839506172839,0,0,0.06172839506172839,76.5432098765432,0)" xlink:href="#an"/><use transform="matrix(0.06172839506172839,0,0,0.06172839506172839,81.41975308641975,0)" xlink:href="#ad"/><use transform="matrix(0.06172839506172839,0,0,0.06172839506172839,93.76543209876543,0)" xlink:href="#ap"/></g><path fill="#834187" d="M212-179c-10-28-35-45-73-45-59 0-87 40-87 99 0 60 29 101 89 101 43 0 62-24 78-52l27 14C228-24 195 4 139 4 59 4 22-46 18-125c-6-104 99-153 187-111 19 9 31 26 39 46" id="as"/><path fill="#834187" d="M100-194c62-1 85 37 85 99 1 63-27 99-86 99S16-35 15-95c0-66 28-99 85-99zM99-20c44 1 53-31 53-75 0-43-8-75-51-75s-53 32-53 75 10 74 51 75" id="at"/><path fill="#834187" d="M24 0v-261h32V0H24" id="au"/><path fill="#834187" d="M100-194c63 0 86 42 84 106H49c0 40 14 67 53 68 26 1 43-12 49-29l28 8c-11 28-37 45-77 45C44 4 14-33 15-96c1-61 26-98 85-98zm52 81c6-60-76-77-97-28-3 7-6 17-6 28h103" id="av"/><path fill="#834187" d="M96-169c-40 0-48 33-48 73s9 75 48 75c24 0 41-14 43-38l32 2c-6 37-31 61-74 61-59 0-76-41-82-99-10-93 101-131 147-64 4 7 5 14 7 22l-32 3c-4-21-16-35-41-35" id="aw"/><path fill="#834187" d="M59-47c-2 24 18 29 38 22v24C64 9 27 4 27-40v-127H5v-23h24l9-43h21v43h35v23H59v120" id="ax"/><path fill="#e5e5e5" d="M33 0v-38h34V0H33" id="ay"/><g id="k"><use transform="matrix(0.07407407407407408,0,0,0.07407407407407408,0,0)" xlink:href="#as"/><use transform="matrix(0.07407407407407408,0,0,0.07407407407407408,19.185185185185187,0)" xlink:href="#at"/><use transform="matrix(0.07407407407407408,0,0,0.07407407407407408,34,0)" xlink:href="#au"/><use transform="matrix(0.07407407407407408,0,0,0.07407407407407408,39.851851851851855,0)" xlink:href="#au"/><use transform="matrix(0.07407407407407408,0,0,0.07407407407407408,45.70370370370371,0)" xlink:href="#av"/><use transform="matrix(0.07407407407407408,0,0,0.07407407407407408,60.518518518518526,0)" xlink:href="#aw"/><use transform="matrix(0.07407407407407408,0,0,0.07407407407407408,73.85185185185186,0)" xlink:href="#ax"/><use transform="matrix(0.07407407407407408,0,0,0.07407407407407408,81.25925925925927,0)" xlink:href="#ay"/></g><path fill="#7ab648" d="M137 0h-34L2-248h35l83 218 83-218h36" id="az"/><path fill="#7ab648" d="M135-143c-3-34-86-38-87 0 15 53 115 12 119 90S17 21 10-45l28-5c4 36 97 45 98 0-10-56-113-15-118-90-4-57 82-63 122-42 12 7 21 19 24 35" id="aA"/><path fill="#7ab648" d="M84 4C-5 8 30-112 23-190h32v120c0 31 7 50 39 49 72-2 45-101 50-169h31l1 190h-30c-1-10 1-25-2-33-11 22-28 36-60 37" id="aB"/><path fill="#7ab648" d="M141-36C126-15 110 5 73 4 37 3 15-17 15-53c-1-64 63-63 125-63 3-35-9-54-41-54-24 1-41 7-42 31l-33-3c5-37 33-52 76-52 45 0 72 20 72 64v82c-1 20 7 32 28 27v20c-31 9-61-2-59-35zM48-53c0 20 12 33 32 33 41-3 63-29 60-74-43 2-92-5-92 41" id="aC"/><path fill="#7ab648" d="M24 0v-261h32V0H24" id="aD"/><path fill="#7ab648" d="M9 0v-24l116-142H16v-24h144v24L44-24h123V0H9" id="aE"/><path fill="#7ab648" d="M100-194c63 0 86 42 84 106H49c0 40 14 67 53 68 26 1 43-12 49-29l28 8c-11 28-37 45-77 45C44 4 14-33 15-96c1-61 26-98 85-98zm52 81c6-60-76-77-97-28-3 7-6 17-6 28h103" id="aF"/><g id="l"><use transform="matrix(0.07407407407407408,0,0,0.07407407407407408,0,0)" xlink:href="#az"/><use transform="matrix(0.07407407407407408,0,0,0.07407407407407408,17.25925925925926,0)" xlink:href="#F"/><use transform="matrix(0.07407407407407408,0,0,0.07407407407407408,23.111111111111114,0)" xlink:href="#aA"/><use transform="matrix(0.07407407407407408,0,0,0.07407407407407408,36.44444444444445,0)" xlink:href="#aB"/><use transform="matrix(0.07407407407407408,0,0,0.07407407407407408,51.25925925925927,0)" xlink:href="#aC"/><use transform="matrix(0.07407407407407408,0,0,0.07407407407407408,66.07407407407408,0)" xlink:href="#aD"/><use transform="matrix(0.07407407407407408,0,0,0.07407407407407408,71.92592592592592,0)" xlink:href="#F"/><use transform="matrix(0.07407407407407408,0,0,0.07407407407407408,77.77777777777777,0)" xlink:href="#aE"/><use transform="matrix(0.07407407407407408,0,0,0.07407407407407408,91.1111111111111,0)" xlink:href="#aF"/></g><path d="M9 0v-24l116-142H16v-24h144v24L44-24h123V0H9" id="aG"/><g id="m"><use transform="matrix(0.06172839506172839,0,0,0.06172839506172839,0,0)" xlink:href="#Q"/><use transform="matrix(0.06172839506172839,0,0,0.06172839506172839,15.987654320987653,0)" xlink:href="#R"/><use transform="matrix(0.06172839506172839,0,0,0.06172839506172839,31.975308641975307,0)" xlink:href="#ag"/><use transform="matrix(0.06172839506172839,0,0,0.06172839506172839,46.358024691358025,0)" xlink:href="#an"/><use transform="matrix(0.06172839506172839,0,0,0.06172839506172839,51.23456790123457,0)" xlink:href="#aG"/></g><path d="M153-248C145-148 188 4 80 4 36 3 13-21 6-62l32-5c4 25 16 42 43 43 27 0 39-20 39-49v-147H72v-28h81" id="aH"/><path d="M115-194c55 1 70 41 70 98S169 2 115 4C84 4 66-9 55-30l1 105H24l-1-265h31l2 30c10-21 28-34 59-34zm-8 174c40 0 45-34 45-75s-6-73-45-74c-42 0-51 32-51 76 0 43 10 73 51 73" id="aI"/><g id="n"><use transform="matrix(0.06172839506172839,0,0,0.06172839506172839,0,0)" xlink:href="#aH"/><use transform="matrix(0.06172839506172839,0,0,0.06172839506172839,11.11111111111111,0)" xlink:href="#T"/><use transform="matrix(0.06172839506172839,0,0,0.06172839506172839,23.45679012345679,0)" xlink:href="#aI"/><use transform="matrix(0.06172839506172839,0,0,0.06172839506172839,35.80246913580247,0)" xlink:href="#al"/><use transform="matrix(0.06172839506172839,0,0,0.06172839506172839,46.91358024691358,0)" xlink:href="#aq"/><use transform="matrix(0.06172839506172839,0,0,0.06172839506172839,53.086419753086425,0)" xlink:href="#ai"/><use transform="matrix(0.06172839506172839,0,0,0.06172839506172839,65.4320987654321,0)" xlink:href="#ak"/></g><path d="M143 0L79-87 56-68V0H24v-261h32v163l83-92h37l-77 82L181 0h-38" id="aJ"/><g id="o"><use transform="matrix(0.06172839506172839,0,0,0.06172839506172839,0,0)" xlink:href="#Q"/><use transform="matrix(0.06172839506172839,0,0,0.06172839506172839,15.987654320987653,0)" xlink:href="#ad"/><use transform="matrix(0.06172839506172839,0,0,0.06172839506172839,28.333333333333332,0)" xlink:href="#aq"/><use transform="matrix(0.06172839506172839,0,0,0.06172839506172839,34.50617283950617,0)" xlink:href="#ai"/><use transform="matrix(0.06172839506172839,0,0,0.06172839506172839,46.85185185185185,0)" xlink:href="#ac"/><use transform="matrix(0.06172839506172839,0,0,0.06172839506172839,59.197530864197525,0)" xlink:href="#ad"/><use transform="matrix(0.06172839506172839,0,0,0.06172839506172839,71.5432098765432,0)" xlink:href="#ad"/><use transform="matrix(0.06172839506172839,0,0,0.06172839506172839,83.88888888888889,0)" xlink:href="#aJ"/><use transform="matrix(0.06172839506172839,0,0,0.06172839506172839,95,0)" xlink:href="#U"/></g><path d="M233-177c-1 41-23 64-60 70L243 0h-38l-65-103H63V0H30v-248c88 3 205-21 203 71zM63-129c60-2 137 13 137-47 0-61-80-42-137-45v92" id="aK"/><path d="M30 0v-248h187v28H63v79h144v27H63v87h162V0H30" id="aL"/><path d="M185-189c-5-48-123-54-124 2 14 75 158 14 163 119 3 78-121 87-175 55-17-10-28-26-33-46l33-7c5 56 141 63 141-1 0-78-155-14-162-118-5-82 145-84 179-34 5 7 8 16 11 25" id="aM"/><path d="M101-234c-31-9-42 10-38 44h38v23H63V0H32v-167H5v-23h27c-7-52 17-82 69-68v24" id="aN"/><g id="p"><use transform="matrix(0.06172839506172839,0,0,0.06172839506172839,0,0)" xlink:href="#aK"/><use transform="matrix(0.06172839506172839,0,0,0.06172839506172839,15.987654320987653,0)" xlink:href="#aL"/><use transform="matrix(0.06172839506172839,0,0,0.06172839506172839,30.80246913580247,0)" xlink:href="#aM"/><use transform="matrix(0.06172839506172839,0,0,0.06172839506172839,45.61728395061728,0)" xlink:href="#am"/><use transform="matrix(0.06172839506172839,0,0,0.06172839506172839,59.1358024691358,0)" xlink:href="#aN"/><use transform="matrix(0.06172839506172839,0,0,0.06172839506172839,65.30864197530863,0)" xlink:href="#T"/><use transform="matrix(0.06172839506172839,0,0,0.06172839506172839,77.65432098765432,0)" xlink:href="#W"/></g><path d="M33 0v-248h34V0H33" id="aO"/><g id="q"><use transform="matrix(0.06172839506172839,0,0,0.06172839506172839,0,0)" xlink:href="#ao"/><use transform="matrix(0.06172839506172839,0,0,0.06172839506172839,14.814814814814813,0)" xlink:href="#S"/><use transform="matrix(0.06172839506172839,0,0,0.06172839506172839,29.629629629629626,0)" xlink:href="#aO"/></g><path d="M240 0l2-218c-23 76-54 145-80 218h-23L58-218 59 0H30v-248h44l77 211c21-75 51-140 76-211h43V0h-30" id="aP"/><path d="M143 4C61 4 22-44 18-125c-5-107 100-154 193-111 17 8 29 25 37 43l-32 9c-13-25-37-40-76-40-61 0-88 39-88 99 0 61 29 100 91 101 35 0 62-11 79-27v-45h-74v-28h105v86C228-13 192 4 143 4" id="aQ"/><g id="r"><use transform="matrix(0.06172839506172839,0,0,0.06172839506172839,0,0)" xlink:href="#R"/><use transform="matrix(0.06172839506172839,0,0,0.06172839506172839,15.987654320987653,0)" xlink:href="#aP"/><use transform="matrix(0.06172839506172839,0,0,0.06172839506172839,34.44444444444444,0)" xlink:href="#aQ"/></g><path d="M140-251c81 0 123 46 123 126C263-46 219 4 140 4 59 4 17-45 17-125s42-126 123-126zm0 227c63 0 89-41 89-101s-29-99-89-99c-61 0-89 39-89 99S79-25 140-24" id="aR"/><path d="M177-190C167-65 218 103 67 71c-23-6-38-20-44-43l32-5c15 47 100 32 89-28v-30C133-14 115 1 83 1 29 1 15-40 15-95c0-56 16-97 71-98 29-1 48 16 59 35 1-10 0-23 2-32h30zM94-22c36 0 50-32 50-73 0-42-14-75-50-75-39 0-46 34-46 75s6 73 46 73" id="aS"/><g id="s"><use transform="matrix(0.06172839506172839,0,0,0.06172839506172839,0,0)" xlink:href="#Q"/><use transform="matrix(0.06172839506172839,0,0,0.06172839506172839,15.987654320987653,0)" xlink:href="#R"/><use transform="matrix(0.06172839506172839,0,0,0.06172839506172839,31.975308641975307,0)" xlink:href="#aR"/><use transform="matrix(0.06172839506172839,0,0,0.06172839506172839,49.25925925925925,0)" xlink:href="#ap"/><use transform="matrix(0.06172839506172839,0,0,0.06172839506172839,61.60493827160493,0)" xlink:href="#aq"/><use transform="matrix(0.06172839506172839,0,0,0.06172839506172839,67.77777777777777,0)" xlink:href="#ad"/><use transform="matrix(0.06172839506172839,0,0,0.06172839506172839,80.12345679012346,0)" xlink:href="#W"/><use transform="matrix(0.06172839506172839,0,0,0.06172839506172839,85,0)" xlink:href="#ad"/><use transform="matrix(0.06172839506172839,0,0,0.06172839506172839,97.34567901234568,0)" xlink:href="#aS"/><use transform="matrix(0.06172839506172839,0,0,0.06172839506172839,109.69135802469137,0)" xlink:href="#al"/></g><path fill="#7ab648" d="M205 0l-28-72H64L36 0H1l101-248h38L239 0h-34zm-38-99l-47-123c-12 45-31 82-46 123h93" id="aT"/><path fill="#7ab648" d="M179-190L93 31C79 59 56 82 12 73V49c39 6 53-20 64-50L1-190h34L92-34l54-156h33" id="aU"/><g id="t"><use transform="matrix(0.07407407407407408,0,0,0.07407407407407408,0,0)" xlink:href="#aT"/><use transform="matrix(0.07407407407407408,0,0,0.07407407407407408,17.77777777777778,0)" xlink:href="#D"/><use transform="matrix(0.07407407407407408,0,0,0.07407407407407408,32.592592592592595,0)" xlink:href="#aC"/><use transform="matrix(0.07407407407407408,0,0,0.07407407407407408,47.40740740740741,0)" xlink:href="#aD"/><use transform="matrix(0.07407407407407408,0,0,0.07407407407407408,53.25925925925927,0)" xlink:href="#aU"/><use transform="matrix(0.07407407407407408,0,0,0.07407407407407408,66.59259259259261,0)" xlink:href="#aE"/><use transform="matrix(0.07407407407407408,0,0,0.07407407407407408,79.92592592592595,0)" xlink:href="#aF"/></g><g id="u"><use transform="matrix(0.06172839506172839,0,0,0.06172839506172839,0,0)" xlink:href="#Q"/><use transform="matrix(0.06172839506172839,0,0,0.06172839506172839,15.987654320987653,0)" xlink:href="#R"/><use transform="matrix(0.06172839506172839,0,0,0.06172839506172839,31.975308641975307,0)" xlink:href="#af"/><use transform="matrix(0.06172839506172839,0,0,0.06172839506172839,46.79012345679012,0)" xlink:href="#W"/><use transform="matrix(0.06172839506172839,0,0,0.06172839506172839,51.666666666666664,0)" xlink:href="#ad"/><use transform="matrix(0.06172839506172839,0,0,0.06172839506172839,64.01234567901234,0)" xlink:href="#ac"/></g><g id="v"><use transform="matrix(0.06172839506172839,0,0,0.06172839506172839,0,0)" xlink:href="#aP"/><use transform="matrix(0.06172839506172839,0,0,0.06172839506172839,18.456790123456788,0)" xlink:href="#aL"/><use transform="matrix(0.06172839506172839,0,0,0.06172839506172839,33.2716049382716,0)" xlink:href="#R"/><use transform="matrix(0.06172839506172839,0,0,0.06172839506172839,49.25925925925925,0)" xlink:href="#ao"/></g><path fill="#7ab648" d="M233-177c-1 41-23 64-60 70L243 0h-38l-65-103H63V0H30v-248c88 3 205-21 203 71zM63-129c60-2 137 13 137-47 0-61-80-42-137-45v92" id="aV"/><path fill="#7ab648" d="M177-190C167-65 218 103 67 71c-23-6-38-20-44-43l32-5c15 47 100 32 89-28v-30C133-14 115 1 83 1 29 1 15-40 15-95c0-56 16-97 71-98 29-1 48 16 59 35 1-10 0-23 2-32h30zM94-22c36 0 50-32 50-73 0-42-14-75-50-75-39 0-46 34-46 75s6 73 46 73" id="aW"/><path fill="#7ab648" d="M59-47c-2 24 18 29 38 22v24C64 9 27 4 27-40v-127H5v-23h24l9-43h21v43h35v23H59v120" id="aX"/><g id="w"><use transform="matrix(0.07407407407407408,0,0,0.07407407407407408,0,0)" xlink:href="#aV"/><use transform="matrix(0.07407407407407408,0,0,0.07407407407407408,19.185185185185187,0)" xlink:href="#aF"/><use transform="matrix(0.07407407407407408,0,0,0.07407407407407408,34,0)" xlink:href="#aW"/><use transform="matrix(0.07407407407407408,0,0,0.07407407407407408,48.81481481481481,0)" xlink:href="#F"/><use transform="matrix(0.07407407407407408,0,0,0.07407407407407408,54.66666666666667,0)" xlink:href="#aA"/><use transform="matrix(0.07407407407407408,0,0,0.07407407407407408,68,0)" xlink:href="#aX"/><use transform="matrix(0.07407407407407408,0,0,0.07407407407407408,75.4074074074074,0)" xlink:href="#aF"/><use transform="matrix(0.07407407407407408,0,0,0.07407407407407408,90.22222222222223,0)" xlink:href="#E"/></g><path d="M96-169c-40 0-48 33-48 73s9 75 48 75c24 0 41-14 43-38l32 2c-6 37-31 61-74 61-59 0-76-41-82-99-10-93 101-131 147-64 4 7 5 14 7 22l-32 3c-4-21-16-35-41-35" id="aY"/><g id="x"><use transform="matrix(0.06172839506172839,0,0,0.06172839506172839,0,0)" xlink:href="#am"/><use transform="matrix(0.06172839506172839,0,0,0.06172839506172839,11.049382716049381,0)" xlink:href="#ai"/><use transform="matrix(0.06172839506172839,0,0,0.06172839506172839,23.39506172839506,0)" xlink:href="#ak"/><use transform="matrix(0.06172839506172839,0,0,0.06172839506172839,30.74074074074074,0)" xlink:href="#ar"/><use transform="matrix(0.06172839506172839,0,0,0.06172839506172839,43.08641975308642,0)" xlink:href="#aM"/><use transform="matrix(0.06172839506172839,0,0,0.06172839506172839,57.90123456790123,0)" xlink:href="#aq"/><use transform="matrix(0.06172839506172839,0,0,0.06172839506172839,64.07407407407406,0)" xlink:href="#an"/><use transform="matrix(0.06172839506172839,0,0,0.06172839506172839,68.9506172839506,0)" xlink:href="#aq"/><use transform="matrix(0.06172839506172839,0,0,0.06172839506172839,75.12345679012344,0)" xlink:href="#aY"/><use transform="matrix(0.06172839506172839,0,0,0.06172839506172839,86.23456790123456,0)" xlink:href="#V"/><use transform="matrix(0.06172839506172839,0,0,0.06172839506172839,98.58024691358024,0)" xlink:href="#ai"/><use transform="matrix(0.06172839506172839,0,0,0.06172839506172839,110.92592592592592,0)" xlink:href="#ak"/></g><g id="y"><use transform="matrix(0.06172839506172839,0,0,0.06172839506172839,0,0)" xlink:href="#Q"/><use transform="matrix(0.06172839506172839,0,0,0.06172839506172839,15.987654320987653,0)" xlink:href="#R"/><use transform="matrix(0.06172839506172839,0,0,0.06172839506172839,31.975308641975307,0)" xlink:href="#aK"/><use transform="matrix(0.06172839506172839,0,0,0.06172839506172839,47.96296296296296,0)" xlink:href="#ai"/><use transform="matrix(0.06172839506172839,0,0,0.06172839506172839,60.30864197530864,0)" xlink:href="#aS"/></g><g id="z"><use transform="matrix(0.06172839506172839,0,0,0.06172839506172839,0,0)" xlink:href="#aK"/><use transform="matrix(0.06172839506172839,0,0,0.06172839506172839,15.987654320987653,0)" xlink:href="#ai"/><use transform="matrix(0.06172839506172839,0,0,0.06172839506172839,28.333333333333332,0)" xlink:href="#ap"/><use transform="matrix(0.06172839506172839,0,0,0.06172839506172839,40.67901234567901,0)" xlink:href="#ae"/><use transform="matrix(0.06172839506172839,0,0,0.06172839506172839,53.02469135802469,0)" xlink:href="#ai"/><use transform="matrix(0.06172839506172839,0,0,0.06172839506172839,65.37037037037037,0)" xlink:href="#ak"/></g><path d="M212-179c-10-28-35-45-73-45-59 0-87 40-87 99 0 60 29 101 89 101 43 0 62-24 78-52l27 14C228-24 195 4 139 4 59 4 22-46 18-125c-6-104 99-153 187-111 19 9 31 26 39 46" id="aZ"/><g id="A"><use transform="matrix(0.06172839506172839,0,0,0.06172839506172839,0,0)" xlink:href="#aZ"/><use transform="matrix(0.06172839506172839,0,0,0.06172839506172839,15.987654320987653,0)" xlink:href="#ao"/><use transform="matrix(0.06172839506172839,0,0,0.06172839506172839,29.1358024691358,0)" xlink:href="#am"/><use transform="matrix(0.06172839506172839,0,0,0.06172839506172839,42.654320987654316,0)" xlink:href="#aP"/><use transform="matrix(0.06172839506172839,0,0,0.06172839506172839,61.1111111111111,0)" xlink:href="#ao"/><use transform="matrix(0.06172839506172839,0,0,0.06172839506172839,75.92592592592591,0)" xlink:href="#aO"/><use transform="matrix(0.06172839506172839,0,0,0.06172839506172839,82.09876543209874,0)" xlink:href="#R"/></g><g id="B"><use transform="matrix(0.06172839506172839,0,0,0.06172839506172839,0,0)" xlink:href="#am"/><use transform="matrix(0.06172839506172839,0,0,0.06172839506172839,12.716049382716047,0)" xlink:href="#ak"/><use transform="matrix(0.06172839506172839,0,0,0.06172839506172839,20.061728395061728,0)" xlink:href="#ar"/><use transform="matrix(0.06172839506172839,0,0,0.06172839506172839,32.407407407407405,0)" xlink:href="#aY"/><use transform="matrix(0.06172839506172839,0,0,0.06172839506172839,43.51851851851852,0)" xlink:href="#aq"/><use transform="matrix(0.06172839506172839,0,0,0.06172839506172839,49.69135802469136,0)" xlink:href="#ad"/><use transform="matrix(0.06172839506172839,0,0,0.06172839506172839,62.03703703703704,0)" xlink:href="#aS"/><use transform="matrix(0.06172839506172839,0,0,0.06172839506172839,74.38271604938272,0)" xlink:href="#ak"/><use transform="matrix(0.06172839506172839,0,0,0.06172839506172839,81.7283950617284,0)" xlink:href="#ar"/><use transform="matrix(0.06172839506172839,0,0,0.06172839506172839,94.07407407407409,0)" xlink:href="#aI"/><use transform="matrix(0.06172839506172839,0,0,0.06172839506172839,106.41975308641977,0)" xlink:href="#V"/><use transform="matrix(0.06172839506172839,0,0,0.06172839506172839,118.76543209876546,0)" xlink:href="#al"/></g></defs></g></svg>